
<svg width="28" height="28" viewBox="0 0 28 28" fill="none" xmlns="http://www.w3.org/2000/svg">
<g filter="url(#filter0_d_20_14)">
<path d="M9.5 14.5C9.5 12.0147 11.5147 10 14 10C16.4853 10 18.5 12.0147 18.5 14.5" stroke="#2B2B2B" stroke-width="1.6" stroke-linecap="round"/>
<path d="M14 9.99998C15.4912 9.99998 16.7 8.79119 16.7 7.29998C16.7 5.80881 15.4912 4.59998 14 4.59998C12.5088 4.59998 11.3 5.80881 11.3 7.29998C11.3 8.79119 12.5088 9.99998 14 9.99998Z" stroke="#2B2B2B" stroke-width="1.6" stroke-linecap="round" stroke-linejoin="round"/>
<path d="M14 19C18.9706 19 23 14.9706 23 10C23 5.02944 18.9706 1 14 1C9.02944 1 5 5.02944 5 10C5 14.9706 9.02944 19 14 19Z" stroke="#2B2B2B" stroke-width="1.6"/>
</g>
<defs>
<filter id="filter0_d_20_14" x="0.200012" y="0.200012" width="27.6" height="27.6" filterUnits="userSpaceOnUse" color-interpolation-filters="sRGB">
<feFlood flood-opacity="0" result="BackgroundImageFix"/>
<feColorMatrix in="SourceAlpha" type="matrix" values="0 0 0 0 0 0 0 0 0 0 0 0 0 0 0 0 0 0 127 0" result="hardAlpha"/>
<feOffset dy="4"/>
<feGaussianBlur stdDeviation="2"/>
<feComposite in2="hardAlpha" operator="out"/>
<feColorMatrix type="matrix" values="0 0 0 0 0 0 0 0 0 0 0 0 0 0 0 0 0 0 0.25 0"/>
<feBlend mode="normal" in2="BackgroundImageFix" result="effect1_dropShadow_20_14"/>
<feBlend mode="normal" in="SourceGraphic" in2="effect1_dropShadow_20_14" result="shape"/>
</filter>
</defs>
</svg>
